<svg width="10" height="13" viewBox="0 0 10 13" fill="none" xmlns="http://www.w3.org/2000/svg">
<path d="M5.62 12.18C4.71333 12.18 3.9 12.02 3.18 11.7C2.46 11.3667 1.88667 10.92 1.46 10.36C1.04667 9.8 0.82 9.18 0.78 8.5H3.6C3.65333 8.92667 3.86 9.28 4.22 9.56C4.59333 9.84 5.05333 9.98 5.6 9.98C6.13333 9.98 6.54667 9.87333 6.84 9.66C7.14667 9.44667 7.3 9.17333 7.3 8.84C7.3 8.48 7.11333 8.21333 6.74 8.04C6.38 7.85333 5.8 7.65333 5 7.44C4.17333 7.24 3.49333 7.03333 2.96 6.82C2.44 6.60667 1.98667 6.28 1.6 5.84C1.22667 5.4 1.04 4.80667 1.04 4.06C1.04 3.44667 1.21333 2.88667 1.56 2.38C1.92 1.87333 2.42667 1.47333 3.08 1.18C3.74667 0.886666 4.52667 0.74 5.42 0.74C6.74 0.74 7.79333 1.07333 8.58 1.74C9.36667 2.39333 9.8 3.28 9.88 4.4H7.2C7.16 3.96 6.97333 3.61333 6.64 3.36C6.32 3.09333 5.88667 2.96 5.34 2.96C4.83333 2.96 4.44 3.05333 4.16 3.24C3.89333 3.42667 3.76 3.68667 3.76 4.02C3.76 4.39333 3.94667 4.68 4.32 4.88C4.69333 5.06667 5.27333 5.26 6.06 5.46C6.86 5.66 7.52 5.86667 8.04 6.08C8.56 6.29333 9.00667 6.62667 9.38 7.08C9.76667 7.52 9.96667 8.10667 9.98 8.84C9.98 9.48 9.8 10.0533 9.44 10.56C9.09333 11.0667 8.58667 11.4667 7.92 11.76C7.26667 12.04 6.5 12.18 5.62 12.18Z" fill="#00FFA9"/>
</svg>
